<svg width="54" height="68" viewBox="0 0 54 68" fill="none" xmlns="http://www.w3.org/2000/svg">
<path id="Vector" d="M1 34L15.8571 19.3333M1 34L15.8571 48.6667M1 34H38.1429M19.5714 67C23.9613 67 28.3082 66.1464 32.364 64.488C36.4197 62.8296 40.1049 60.3989 43.209 57.3345C46.3131 54.2702 48.7755 50.6323 50.4554 46.6286C52.1353 42.6248 53 38.3336 53 34C53 29.6664 52.1353 25.3752 50.4554 21.3714C48.7755 17.3677 46.3131 13.7298 43.209 10.6655C40.1049 7.60114 36.4197 5.17038 32.364 3.51198C28.3082 1.85357 23.9613 1 19.5714 1" stroke="white" stroke-width="2" stroke-linecap="round" stroke-linejoin="round"/>
</svg>
