<svg width="54" height="68" viewBox="0 0 54 68" fill="none" xmlns="http://www.w3.org/2000/svg">
<path id="Vector" d="M53 34L38.1429 19.3333M53 34L38.1429 48.6667M53 34H15.8571M34.4286 67C30.0387 67 25.6918 66.1464 21.636 64.488C17.5803 62.8296 13.8951 60.3989 10.791 57.3345C7.68687 54.2702 5.22454 50.6323 3.5446 46.6286C1.86465 42.6248 1 38.3336 1 34C1 29.6664 1.86465 25.3752 3.5446 21.3714C5.22454 17.3677 7.68687 13.7298 10.791 10.6655C13.8951 7.60114 17.5803 5.17038 21.636 3.51198C25.6918 1.85357 30.0387 1 34.4286 1" stroke="white" stroke-width="2" stroke-linecap="round" stroke-linejoin="round"/>
</svg>
