<svg width="23" height="23" viewBox="0 0 23 23" fill="none" xmlns="http://www.w3.org/2000/svg">
<g id="maki:danger" clip-path="url(#clip0_640_772)">
<path id="Vector" d="M21.3747 22.5093C21.3186 22.6546 21.2196 22.7794 21.0909 22.8671C20.9621 22.9547 20.8098 23.0011 20.654 23C20.562 23.0153 20.47 23.0153 20.378 23L11.5 19.2587L2.60668 23C2.51285 23.0367 2.41271 23.0546 2.31197 23.0525C2.21124 23.0505 2.1119 23.0287 2.01962 22.9882C1.92734 22.9478 1.84394 22.8895 1.77418 22.8168C1.70442 22.7441 1.64968 22.6584 1.61308 22.5645L1.61001 22.5553C1.5576 22.4562 1.52758 22.3468 1.52206 22.2348C1.51654 22.1228 1.53565 22.0109 1.57805 21.9071C1.62045 21.8033 1.68511 21.7101 1.76746 21.634C1.84981 21.5579 1.94785 21.5008 2.05468 21.4667L9.49134 18.4L2.05468 15.3333C1.95377 15.3027 1.86027 15.2515 1.78003 15.183C1.6998 15.1146 1.63455 15.0303 1.58837 14.9355C1.5422 14.8407 1.51608 14.7373 1.51166 14.6319C1.50724 14.5266 1.52461 14.4214 1.56268 14.323C1.60076 14.2247 1.65872 14.1352 1.73294 14.0603C1.80716 13.9854 1.89604 13.9266 1.99403 13.8875C2.09202 13.8485 2.197 13.8301 2.30242 13.8335C2.40783 13.8369 2.51141 13.8621 2.60668 13.9073L11.5 17.6027L20.3933 13.9073C20.4886 13.8621 20.5922 13.8369 20.6976 13.8335C20.803 13.8301 20.908 13.8485 21.006 13.8875C21.104 13.9266 21.1929 13.9854 21.2671 14.0603C21.3413 14.1352 21.3993 14.2247 21.4373 14.323C21.4754 14.4214 21.4928 14.5266 21.4884 14.6319C21.4839 14.7373 21.4578 14.8407 21.4116 14.9355C21.3655 15.0303 21.3002 15.1146 21.22 15.183C21.1398 15.2515 21.0463 15.3027 20.9453 15.3333L13.4933 18.4L20.93 21.4667C21.0307 21.5018 21.123 21.5576 21.201 21.6305C21.2789 21.7033 21.3408 21.7916 21.3827 21.8898C21.4245 21.9879 21.4454 22.0937 21.444 22.2004C21.4427 22.3071 21.419 22.4123 21.3747 22.5093ZM18.4 6.486V7.176C18.3967 7.50252 18.2893 7.81946 18.0933 8.08067C17.2369 9.02869 16.3146 9.91511 15.3333 10.7333V12.512C15.3344 12.6677 15.2881 12.8201 15.2004 12.9489C15.1128 13.0776 14.988 13.1766 14.8427 13.2327L11.5307 14.5667H11.4233L8.09601 13.2327C7.96217 13.1672 7.85028 13.0642 7.77404 12.9363C7.69779 12.8083 7.66048 12.6608 7.66668 12.512V10.7333C6.67436 9.91683 5.74175 9.03034 4.87601 8.08067C4.69098 7.81573 4.59438 7.49911 4.60001 7.176V6.486C4.72404 4.83782 5.42296 3.28554 6.57476 2.10012C7.72656 0.914688 9.25808 0.171403 10.902 0L12.052 0C13.7053 0.158291 15.2494 0.896175 16.4111 2.08314C17.5728 3.27011 18.2773 4.82968 18.4 6.486ZM9.20001 6.13333C9.20001 5.72667 9.03846 5.33666 8.75091 5.0491C8.46335 4.76155 8.07334 4.6 7.66668 4.6C7.26001 4.6 6.87 4.76155 6.58245 5.0491C6.29489 5.33666 6.13334 5.72667 6.13334 6.13333C6.13334 6.54 6.29489 6.93001 6.58245 7.21756C6.87 7.50512 7.26001 7.66667 7.66668 7.66667C8.07334 7.66667 8.46335 7.50512 8.75091 7.21756C9.03846 6.93001 9.20001 6.54 9.20001 6.13333ZM10.7333 10.7333C10.7333 10.53 10.6526 10.335 10.5088 10.1912C10.365 10.0474 10.17 9.96667 9.96668 9.96667C9.76334 9.96667 9.56834 10.0474 9.42456 10.1912C9.28078 10.335 9.20001 10.53 9.20001 10.7333V11.5C9.20001 11.7033 9.28078 11.8983 9.42456 12.0421C9.56834 12.1859 9.76334 12.2667 9.96668 12.2667C10.17 12.2667 10.365 12.1859 10.5088 12.0421C10.6526 11.8983 10.7333 11.7033 10.7333 11.5V10.7333ZM13.8 10.7333C13.8 10.53 13.7192 10.335 13.5755 10.1912C13.4317 10.0474 13.2367 9.96667 13.0333 9.96667C12.83 9.96667 12.635 10.0474 12.4912 10.1912C12.3475 10.335 12.2667 10.53 12.2667 10.7333V11.5C12.2667 11.7033 12.3475 11.8983 12.4912 12.0421C12.635 12.1859 12.83 12.2667 13.0333 12.2667C13.2367 12.2667 13.4317 12.1859 13.5755 12.0421C13.7192 11.8983 13.8 11.7033 13.8 11.5V10.7333ZM16.8667 6.13333C16.8667 5.72667 16.7051 5.33666 16.4176 5.0491C16.13 4.76155 15.74 4.6 15.3333 4.6C14.9267 4.6 14.5367 4.76155 14.2491 5.0491C13.9616 5.33666 13.8 5.72667 13.8 6.13333C13.8 6.54 13.9616 6.93001 14.2491 7.21756C14.5367 7.50512 14.9267 7.66667 15.3333 7.66667C15.74 7.66667 16.13 7.50512 16.4176 7.21756C16.7051 6.93001 16.8667 6.54 16.8667 6.13333Z" fill="#F24E1E"/>
</g>
<defs>
<clipPath id="clip0_640_772">
<rect width="23" height="23" fill="white"/>
</clipPath>
</defs>
</svg>
