<svg width="24" height="25" viewBox="0 0 24 25" fill="none" xmlns="http://www.w3.org/2000/svg">
<g id="Union">
<path d="M20.1775 18.5997C20.8787 19.1489 21.903 19.03 22.3533 18.2617C23.2215 16.78 23.7649 15.1236 23.939 13.4026C24.1675 11.1447 23.751 8.86822 22.7378 6.83745C21.7247 4.80668 20.1564 3.10485 18.2151 1.92943C16.7354 1.03355 15.0852 0.471494 13.3793 0.274064C12.4946 0.171688 11.7836 0.918639 11.8007 1.80906C11.8177 2.69953 12.5591 3.39245 13.4377 3.5384C14.5322 3.72017 15.5872 4.10872 16.5446 4.68839C17.9642 5.54789 19.111 6.79232 19.8518 8.27732C20.5927 9.76227 20.8972 11.4269 20.7302 13.078C20.6175 14.1915 20.2934 15.2681 19.7805 16.2518C19.3687 17.0415 19.4764 18.0506 20.1775 18.5997Z" fill="white"/>
<path d="M8.07943 2.5751C7.74327 1.75035 6.795 1.3452 6.02272 1.7888C5.0444 2.35082 4.14785 3.04935 3.36104 3.86543C2.20011 5.06962 1.30374 6.50318 0.72946 8.07415C0.155177 9.64516 -0.084346 11.3188 0.0262705 12.9878C0.136907 14.6568 0.595202 16.2843 1.3718 17.7657C2.14839 19.2471 3.22611 20.5499 4.53581 21.5903C5.84551 22.6307 7.35825 23.3859 8.97695 23.8073C10.5957 24.2286 12.2846 24.307 13.9354 24.0372C15.0541 23.8544 16.1386 23.5144 17.1574 23.0295C17.9616 22.6468 18.1678 21.6364 17.6807 20.8907C17.1936 20.1451 16.1975 19.9513 15.3755 20.2938C14.7477 20.5554 14.09 20.7439 13.4152 20.8542C12.2081 21.0514 10.9731 20.9941 9.78948 20.686C8.60582 20.3779 7.49967 19.8257 6.54197 19.0649C5.58428 18.3041 4.79623 17.3515 4.22836 16.2683C3.66048 15.185 3.32536 13.995 3.24447 12.7745C3.16357 11.5541 3.33872 10.3303 3.75865 9.18149C4.17859 8.03277 4.83403 6.9845 5.68295 6.10397C6.1575 5.61173 6.68664 5.17802 7.25891 4.81054C8.00832 4.32934 8.41557 3.39985 8.07943 2.5751Z" fill="white"/>
<path d="M12.3332 15.5273C14.3582 15.5273 15.9999 13.8857 15.9999 11.8607C15.9999 9.83563 14.3582 8.19398 12.3332 8.19398C10.3081 8.19398 8.66649 9.83563 8.66649 11.8607C8.66649 13.8857 10.3081 15.5273 12.3332 15.5273Z" fill="white"/>
</g>
</svg>
