<svg width="52" height="52" viewBox="0 0 52 52" fill="none" xmlns="http://www.w3.org/2000/svg">
<circle cx="25.9268" cy="25.7646" r="23.7414" stroke="#20FBFD" stroke-width="3.51724"/>
<path d="M22.5952 9.26514C14.6217 10.5299 8.52637 17.4356 8.52637 25.765C8.52637 34.0943 14.6217 41 22.5952 42.2648V38.6908C16.5749 37.4687 12.0436 32.146 12.0436 25.765C12.0436 19.3839 16.5749 14.0612 22.5952 12.8391V9.26514Z" fill="#20FBFD"/>
<path d="M29.2551 42.0571C37.2287 40.7924 43.3242 33.8867 43.3242 25.5573C43.3242 17.228 37.2288 10.3222 29.2551 9.05749L29.2551 12.6315C35.2756 13.8536 39.8069 19.1763 39.8069 25.5573C39.8069 31.9384 35.2756 37.2611 29.2551 38.4831L29.2551 42.0571Z" fill="#20FBFD"/>
<circle cx="25.9275" cy="25.7654" r="6.22729" fill="#20FBFD"/>
</svg>
