<svg width="17" height="17" viewBox="0 0 17 17" fill="none" xmlns="http://www.w3.org/2000/svg">
<g id="carbon:arrow-shift-down">
<path id="Vector" d="M11.9267 3.26465V8.26465H14.4267C14.5255 8.26467 14.6222 8.29401 14.7044 8.34895C14.7866 8.40389 14.8507 8.48197 14.8885 8.57332C14.9263 8.66467 14.9362 8.76519 14.9169 8.86216C14.8977 8.95914 14.8501 9.04822 14.7802 9.11815L8.78015 15.1181C8.68639 15.2119 8.55923 15.2645 8.42665 15.2645C8.29407 15.2645 8.16692 15.2119 8.07315 15.1181L2.07315 9.11815C2.00325 9.04822 1.95564 8.95914 1.93636 8.86216C1.91708 8.76519 1.92698 8.66467 1.96481 8.57332C2.00265 8.48197 2.06672 8.40389 2.14892 8.34895C2.23113 8.29401 2.32778 8.26467 2.42665 8.26465H4.92665V3.26465C4.92692 2.99951 5.03236 2.74531 5.21984 2.55783C5.40732 2.37036 5.66152 2.26491 5.92665 2.26465H10.9267C11.1917 2.26505 11.4459 2.37053 11.6333 2.55798C11.8208 2.74543 11.9263 2.99955 11.9267 3.26465Z" fill="#20FBFD"/>
</g>
</svg>
