<svg width="17" height="17" viewBox="0 0 17 17" fill="none" xmlns="http://www.w3.org/2000/svg">
<g id="clarity:video-camera-solid">
<path id="Vector" d="M14.7821 4.42004L11.9821 5.99782V3.82004C11.9821 3.58429 11.8884 3.3582 11.7217 3.1915C11.555 3.0248 11.329 2.93115 11.0932 2.93115H3.09321C2.62171 2.93115 2.16953 3.11845 1.83613 3.45185C1.50273 3.78525 1.31543 4.23743 1.31543 4.70893V11.82C1.31543 12.2915 1.50273 12.7437 1.83613 13.0771C2.16953 13.4105 2.62171 13.5978 3.09321 13.5978H11.0932C11.329 13.5978 11.555 13.5042 11.7217 13.3375C11.8884 13.1708 11.9821 12.9447 11.9821 12.7089V10.5223L14.7821 12.1C14.8539 12.147 14.9369 12.1742 15.0225 12.1789C15.1082 12.1837 15.1936 12.1658 15.2702 12.127C15.3468 12.0883 15.4118 12.0301 15.4587 11.9582C15.5057 11.8864 15.5329 11.8035 15.5377 11.7178V4.79782C15.5322 4.71252 15.5044 4.63015 15.4572 4.55892C15.4099 4.48769 15.3449 4.43009 15.2684 4.39187C15.192 4.35364 15.1068 4.33613 15.0215 4.34107C14.9362 4.34602 14.8536 4.37324 14.7821 4.42004Z" fill="#F3F3F3"/>
</g>
</svg>
