<svg width="81" height="81" viewBox="0 0 81 81" fill="none" xmlns="http://www.w3.org/2000/svg">
<g id="ant-design:folder-filled">
<path id="Subtract" fill-rule="evenodd" clip-rule="evenodd" d="M41.2367 22.0411H73.5466C75.1396 22.0411 76.4266 23.3281 76.4266 24.9211V67.905C76.4266 69.498 75.1396 70.785 73.5466 70.785H7.30675C5.71376 70.785 4.42676 69.498 4.42676 67.905V14.6251C4.42676 13.0321 5.71376 11.7451 7.30675 11.7451H30.1847C30.3687 11.7467 30.5454 11.8174 30.6797 11.9431L41.2367 22.0411ZM40.4263 62.131C49.4838 62.131 56.8263 54.7885 56.8263 45.731C56.8263 36.6736 49.4838 29.3311 40.4263 29.3311C31.3689 29.3311 24.0264 36.6736 24.0264 45.731C24.0264 54.7885 31.3689 62.131 40.4263 62.131Z" fill="white"/>
<path id="Polygon 32" d="M41.2928 58.7646C40.9079 59.4313 39.9456 59.4313 39.5607 58.7646L29.1684 40.7646C28.7835 40.098 29.2647 39.2646 30.0345 39.2646L50.8191 39.2647C51.5889 39.2647 52.07 40.098 51.6851 40.7647L41.2928 58.7646Z" fill="white"/>
</g>
</svg>
