<svg width="81" height="81" viewBox="0 0 81 81" fill="none" xmlns="http://www.w3.org/2000/svg">
<g id="Frame 11">
<path id="Subtract" opacity="0.9" fill-rule="evenodd" clip-rule="evenodd" d="M44.5088 8.07952C42.3425 5.65969 38.554 5.65969 36.3877 8.07952L31.79 13.2153C30.686 14.4485 29.0813 15.1132 27.4286 15.0218L20.546 14.6414C17.3031 14.4621 14.6242 17.141 14.8035 20.3839L15.184 27.2665C15.2753 28.9192 14.6106 30.5239 13.3774 31.6279L8.24162 36.2256C5.8218 38.3918 5.8218 42.1804 8.24163 44.3467L13.3774 48.9444C14.6106 50.0484 15.2753 51.6531 15.184 53.3058L14.8035 60.1884C14.6242 63.4313 17.3031 66.1102 20.546 65.9309L27.4286 65.5504C29.0813 65.4591 30.686 66.1237 31.79 67.357L36.3877 72.4928C38.554 74.9126 42.3425 74.9126 44.5088 72.4928L49.1065 67.357C50.2105 66.1237 51.8152 65.4591 53.4679 65.5504L60.3505 65.9309C63.5934 66.1102 66.2723 63.4313 66.093 60.1884L65.7125 53.3058C65.6212 51.6531 66.2859 50.0484 67.5191 48.9444L72.6549 44.3467C75.0747 42.1804 75.0747 38.3918 72.6549 36.2256L67.5191 31.6279C66.2859 30.5239 65.6212 28.9192 65.7125 27.2665L66.093 20.3839C66.2723 17.141 63.5934 14.4621 60.3505 14.6414L53.4679 15.0218C51.8152 15.1132 50.2105 14.4485 49.1065 13.2153L44.5088 8.07952ZM40.6147 64.1698C53.882 64.1698 64.6372 53.4146 64.6372 40.1474C64.6372 26.8801 53.882 16.1249 40.6147 16.1249C27.3475 16.1249 16.5922 26.8801 16.5922 40.1474C16.5922 53.4146 27.3475 64.1698 40.6147 64.1698Z" fill="white"/>
<path id="Polygon 2" opacity="0.9" d="M39.2221 30.0426C40.0026 28.7706 41.8509 28.7706 42.6314 30.0426L52.5576 46.2186C53.3753 47.5512 52.4165 49.2646 50.853 49.2646H31.0006C29.4371 49.2646 28.4782 47.5512 29.2959 46.2186L39.2221 30.0426Z" fill="white"/>
</g>
</svg>
