<svg width="53" height="62" viewBox="0 0 53 62" fill="none" xmlns="http://www.w3.org/2000/svg">
<g id="Group 34">
<path id="Vector" d="M2.0166 37.71C2.0166 20.8583 16.2002 0.674805 26.6015 0.674805C37.0027 0.674805 51.1863 20.8583 51.1863 37.71C51.1863 63.1837 49.702 60.8942 26.6015 60.8942C3.63364 60.8942 2.0166 62.8435 2.0166 37.71ZM12.2583 51.5265C13.2962 53.726 15.087 55.9354 17.5191 55.9349H35.6838C38.3531 55.9355 40.3892 53.6522 41.3465 51.1605C42.1999 48.9392 43.1511 46.2478 43.5053 44.4533C43.9408 42.2541 44.1621 39.9986 44.1621 37.71C44.1621 24.8924 34.6388 6.60325 26.6015 6.60325C18.5641 6.60325 9.04085 24.8924 9.04085 37.71C9.04085 39.9986 9.26211 42.2541 9.69761 44.4566C10.147 46.7335 11.2755 49.4438 12.2583 51.5265Z" fill="white"/>
<path id="Ellipse 64" d="M16.145 48.4659C22.606 60.4088 16.2732 56.825 12.8656 58.182C9.4579 59.539 5.40123 57.3891 3.80475 53.3801C2.20827 49.3711 3.67653 45.021 7.0842 43.664C10.4919 42.307 13.8817 44.2822 16.145 48.4659Z" fill="white"/>
<path id="Ellipse 67" d="M37.1353 48.4659C30.6743 60.4088 37.007 56.825 40.4147 58.182C43.8224 59.539 47.879 57.3891 49.4755 53.3801C51.072 49.3711 49.6037 45.021 46.1961 43.664C42.7884 42.307 39.3986 44.2822 37.1353 48.4659Z" fill="white"/>
<ellipse id="Ellipse 66" cx="26.6013" cy="26.4514" rx="6.34448" ry="5.94795" fill="white"/>
</g>
</svg>
