<svg width="81" height="81" viewBox="0 0 81 81" fill="none" xmlns="http://www.w3.org/2000/svg">
<g id="ic:twotone-navigation">
<path id="Ellipse 68" d="M25.8162 68.7343C19.4462 65.4654 14.3564 60.1546 11.3611 53.6514C8.36577 47.1483 7.63791 39.8284 9.29393 32.8628C10.95 25.8971 14.8942 19.688 20.4957 15.2287C26.0973 10.7693 33.0326 8.31739 40.1922 8.26502C47.3518 8.21266 54.3222 10.5629 59.9884 14.9398C65.6546 19.3168 69.6892 25.4675 71.4469 32.4082C73.2046 39.3489 72.5839 46.6786 69.684 53.2249C66.7841 59.7712 61.7726 65.1558 55.4511 68.5175L53.6849 65.1964C59.2634 62.2298 63.6858 57.4782 66.2448 51.7014C68.8038 45.9246 69.3516 39.4565 67.8005 33.3317C66.2494 27.2068 62.689 21.7791 57.6889 17.9167C52.6887 14.0542 46.5377 11.9803 40.2197 12.0265C33.9017 12.0727 27.7816 14.2364 22.8385 18.1715C17.8954 22.1067 14.4148 27.5859 12.9535 33.7328C11.4921 39.8797 12.1344 46.3391 14.7777 52.0778C17.4209 57.8165 21.9123 62.503 27.5336 65.3877L25.8162 68.7343Z" fill="white"/>
<circle id="Ellipse 70" cx="54.4268" cy="67.2646" r="6" fill="white"/>
<circle id="Ellipse 72" cx="40.4268" cy="40.2646" r="18" fill="white"/>
<circle id="Ellipse 71" cx="22.4268" cy="16.2646" r="6" fill="white"/>
</g>
</svg>
